<svg width="142" height="25" viewBox="0 0 142 25" fill="none" xmlns="http://www.w3.org/2000/svg">
<path d="M11.6947 0.6306L14.314 8.77063H22.7903L15.9328 13.8014L18.5522 21.9415L11.6947 16.9107L4.83719 21.9415L7.45652 13.8014L0.599023 8.77063H9.07535L11.6947 0.6306Z" fill="#56B280"/>
<path d="M40.073 0.6306L42.6924 8.77063H51.1687L44.3112 13.8014L46.9305 21.9415L40.073 16.9107L33.2155 21.9415L35.8349 13.8014L28.9774 8.77063H37.4537L40.073 0.6306Z" fill="#56B280"/>
<path d="M68.4513 0.6306L71.0707 8.77063H79.547L72.6895 13.8014L75.3088 21.9415L68.4513 16.9107L61.5938 21.9415L64.2132 13.8014L57.3557 8.77063H65.832L68.4513 0.6306Z" fill="#56B280"/>
<path d="M96.8299 0.6306L99.4493 8.77063H107.926L101.068 13.8014L103.687 21.9415L96.8299 16.9107L89.9724 21.9415L92.5918 13.8014L85.7343 8.77063H94.2106L96.8299 0.6306Z" fill="#56B280"/>
<path d="M130.253 0.6306L132.873 8.77063H141.349L134.491 13.8014L137.111 21.9415L130.253 16.9107L123.396 21.9415L126.015 13.8014L119.158 8.77063H127.634L130.253 0.6306Z" fill="#5BC08A"/>
</svg>
